# xmcd CD database file
# Generated: Son Sep 28 00:51:05 2003 by KSCD
# 
# Track frame offsets:
#       150
#       12991
#       23498
#       33212
#       48279
#       58701
#       75266
#       88634
#       100354
#       113756
#       125127
#       139211
#       151429
#       164864
#       177323
#       185372
#       198019
#       209777
#
# Disc length: 2958 seconds
#
# Revision: 0
# Processed by: cddbd v1.4PL0 Copyright (c) Steve Scherf et al.
# Submitted via: Kscd 1.3.3
#
DISCID=f20b8c12
DTITLE=Various Artist - The story of Rhythm and Blues [CD9)
DYEAR=1900
DGENRE=
TTITLE0=Roy Brown - Boogie at midnight 
TTITLE1=Little Esther and Willie Littlefield - Turn the lights down low 
TTITLE2=Bumps Blackwell - Summin' jumpin' 
TTITLE3=Arthur Smith - Guitar boogie 
TTITLE4=Percy Mayfield - Baby your rich 
TTITLE5=Howlin' Wolf - Shake it for me 
TTITLE6=T. Texas Tyler - My bucket's got a hole in it 
TTITLE7=Mearl Travis - Cincinnati Lou 
TTITLE8=T-Bone Walker - T-Bone shuffle 
TTITLE9=T.J. Fowler - Red hot blues 
TTITLE10=Louis Jordan - Boogie woogie came to town 
TTITLE11=Amos Milburn - Let me go home whisky 
TTITLE12=Roy Brown - Roy Brown boogie 
TTITLE13=Annie Laurie and Paul Gayten Orchestra - Cuttin' out 
TTITLE14=Ruth Brown - This little girl's gone rockin' 
TTITLE15=Muddy Waters - I'm your Hoochie Coochie Man 
TTITLE16=Ruth Brown - So long 
TTITLE17=Joe Thomas - Page boy shuffle 
EXTD=(c) Digimode Entertainment Ltd. UK 
EXTT0=Brown 
EXTT1=Littlefield 
EXTT2=Blackwell 
EXTT3=Smith 
EXTT4=Mayfield 
EXTT5=Burnett 
EXTT6=M. Tyler 
EXTT7=Travis 
EXTT8=Walker 
EXTT9=T. J. Fowler 
EXTT10=Jordan - Williams 
EXTT11=Milburn 
EXTT12=Brown 
EXTT13=Gayten 
EXTT14=Brown 
EXTT15=Dixon 
EXTT16=Brown 
EXTT17=Glover 
PLAYORDER=
